<svg xmlns="http://www.w3.org/2000/svg" width="40" height="30" viewBox="0 0 40 30">
  <path id="Path_1692" data-name="Path 1692" d="M33.125-7.5h1.25A.627.627,0,0,0,35-8.125v-18.75a.627.627,0,0,0-.625-.625h-1.25a.627.627,0,0,0-.625.625v18.75A.627.627,0,0,0,33.125-7.5Zm-7.5,0h1.25a.627.627,0,0,0,.625-.625v-11.25A.627.627,0,0,0,26.875-20h-1.25a.627.627,0,0,0-.625.625v11.25A.627.627,0,0,0,25.625-7.5Zm-15,0h1.25a.627.627,0,0,0,.625-.625v-6.25A.627.627,0,0,0,11.875-15h-1.25a.627.627,0,0,0-.625.625v6.25A.627.627,0,0,0,10.625-7.5Zm7.5,0h1.25A.627.627,0,0,0,20-8.125v-16.25A.627.627,0,0,0,19.375-25h-1.25a.627.627,0,0,0-.625.625v16.25A.627.627,0,0,0,18.125-7.5Zm21.25,5H2.5V-29.375A.625.625,0,0,0,1.875-30H.625A.625.625,0,0,0,0-29.375V-1.25A1.25,1.25,0,0,0,1.25,0H39.375A.625.625,0,0,0,40-.625v-1.25A.625.625,0,0,0,39.375-2.5Z" transform="translate(0 30)" fill="#243240" opacity="0.619"/>
</svg>
