<svg width="1137" height="379" viewBox="0 0 1137 379" fill="none" xmlns="http://www.w3.org/2000/svg">
<path d="M1104.13 0.417182C1097.63 0.417182 1091.28 2.36387 1085.88 6.01109C1080.47 9.6583 1076.26 14.8422 1073.77 20.9073C1071.28 26.9724 1070.63 33.6463 1071.9 40.085C1073.17 46.5237 1076.3 52.4379 1080.9 57.08C1085.49 61.722 1091.35 64.8833 1097.72 66.164C1104.1 67.4447 1110.71 66.7874 1116.71 64.2752C1122.72 61.7629 1127.85 57.5086 1131.46 52.0501C1135.07 46.5917 1137 40.1743 1137 33.6095C1136.97 24.816 1133.5 16.3916 1127.34 10.1737C1121.18 3.95571 1112.84 0.448588 1104.13 0.417182ZM1104.13 60.3659C1098.82 60.7125 1093.53 59.4376 1088.94 56.7068C1084.35 53.9761 1080.69 49.9156 1078.41 45.0526C1076.14 40.1896 1075.37 34.7488 1076.2 29.4367C1077.02 24.1245 1079.41 19.1864 1083.05 15.2636C1086.7 11.3407 1091.42 8.61438 1096.62 7.43851C1101.81 6.26265 1107.24 6.69162 1112.19 8.66969C1117.14 10.6478 1121.39 14.0836 1124.38 18.531C1127.38 22.9784 1128.98 28.2319 1128.98 33.6095C1129.15 37.0298 1128.64 40.4506 1127.47 43.6668C1126.31 46.8831 1124.51 49.8287 1122.19 52.3271C1119.87 54.8255 1117.08 56.8253 1113.98 58.2066C1110.87 59.5879 1107.53 60.3224 1104.13 60.3659Z" fill="#FFD300"/>
<path d="M1109.33 35.8737C1110.65 35.9137 1111.96 35.669 1113.19 35.1559C1114.41 34.6429 1115.51 33.8732 1116.41 32.8981C1117.31 31.923 1118 30.7648 1118.43 29.5004C1118.86 28.2359 1119.01 26.8943 1118.89 25.5645C1118.89 17.8772 1114.16 14.7189 1105.37 14.7189H1091.51V52.4401H1098.41V36.1717H1102.48L1112.28 52.4401H1119.18L1109.33 35.8737ZM1098.41 30.9277V20.0225H1104.61C1108.09 20.0225 1112.1 20.678 1112.1 24.9685C1112.1 30.3318 1108.56 30.9277 1104.43 30.9277H1098.41Z" fill="#FFD300"/>
<path d="M961.877 349.264C1001 321.375 1021.18 274.298 1021.18 209.165V0H891.367V207.02C891.732 222.107 888.979 237.105 883.284 251.058L961.877 349.264Z" fill="#FFD300"/>
<path d="M678.601 136.643V206.662C678.601 319.409 738.017 379 850.95 379C858.267 379 865.406 379 872.25 378.285L678.601 136.643Z" fill="#FFD300"/>
<path d="M809.825 164.472V0.119299H678.542L809.825 164.472Z" fill="#66676B"/>
<path d="M348.121 0.297883V372.505H627.621V285.501H446.952V0.297883H348.121Z" fill="#FFD300"/>
<path d="M276.845 224.063V146.237H97.769V84.5598H295.549V0.297883H0V372.505H298.086V288.302H97.769V224.063H276.845Z" fill="#FFD300"/>
</svg>
