<svg width="74" height="26" viewBox="0 0 74 26" fill="none" xmlns="http://www.w3.org/2000/svg">
<path d="M70.9188 1.02642C70.5072 1.02642 70.1049 1.14969 69.7626 1.38065C69.4204 1.61161 69.1536 1.93988 68.9961 2.32395C68.8386 2.70802 68.7974 3.13064 68.8777 3.53836C68.958 3.94609 69.1562 4.32061 69.4472 4.61456C69.7383 4.90852 70.1091 5.1087 70.5128 5.1898C70.9165 5.27091 71.335 5.22928 71.7153 5.07019C72.0956 4.91111 72.4206 4.6417 72.6493 4.29605C72.8779 3.9504 73 3.54402 73 3.1283C72.998 2.57146 72.7781 2.03799 72.3883 1.64424C71.9984 1.25049 71.4702 1.02841 70.9188 1.02642ZM70.9188 4.82264C70.5824 4.84459 70.2471 4.76386 69.9567 4.59093C69.6662 4.41801 69.4339 4.16088 69.29 3.85294C69.1461 3.54499 69.0971 3.20045 69.1496 2.86406C69.202 2.52767 69.3533 2.21497 69.5839 1.96656C69.8146 1.71815 70.1138 1.5455 70.4428 1.47104C70.7718 1.39658 71.1154 1.42374 71.4289 1.549C71.7425 1.67426 72.0115 1.89184 72.201 2.17347C72.3906 2.4551 72.4919 2.78777 72.4918 3.1283C72.5029 3.34489 72.4706 3.56151 72.3968 3.76518C72.323 3.96885 72.2093 4.15538 72.0624 4.31359C71.9155 4.4718 71.7385 4.59843 71.542 4.68591C71.3455 4.77338 71.1336 4.81989 70.9188 4.82264Z" fill="#FFDB0A"/>
<path d="M71.2476 3.27169C71.3313 3.27422 71.4146 3.25872 71.492 3.22623C71.5693 3.19375 71.6389 3.14501 71.6962 3.08326C71.7534 3.02151 71.797 2.94817 71.824 2.8681C71.851 2.78803 71.8609 2.70307 71.8529 2.61886C71.8529 2.13207 71.554 1.93206 70.9973 1.93206H70.1192V4.32074H70.5564V3.29056H70.8142L71.4344 4.32074H71.8716L71.2476 3.27169ZM70.5564 2.95848V2.26791H70.9487C71.1691 2.26791 71.4232 2.30942 71.4232 2.58112C71.4232 2.92074 71.199 2.95848 70.9375 2.95848H70.5564Z" fill="#FFDB0A"/>
<path d="M61.9104 23.117C64.3876 21.3509 65.6654 18.3698 65.6654 14.2453V1H57.4454V14.1094C57.4685 15.0648 57.2942 16.0146 56.9335 16.8981L61.9104 23.117Z" fill="#FFDB0A"/>
<path d="M43.9721 9.65283V14.0868C43.9721 21.2264 47.7346 25 54.886 25C55.3493 25 55.8014 25 56.2349 24.9547L43.9721 9.65283Z" fill="#FFDB0A"/>
<path d="M52.2818 11.4151V1.00755H43.9683L52.2818 11.4151Z" fill="white"/>
<path d="M23.0446 1.01886V24.5887H40.7438V19.0792H29.3031V1.01886H23.0446Z" fill="#FFDB0A"/>
<path d="M18.5311 15.1887V10.2604H7.19118V6.35471H19.7155V1.01886H1V24.5887H19.8762V19.2566H7.19118V15.1887H18.5311Z" fill="#FFDB0A"/>
<path d="M70.9188 1.02642L70.9194 0.876418H70.9188V1.02642ZM73 3.1283L73.15 3.1283V3.12777L73 3.1283ZM70.9188 4.82264L70.9169 4.67245L70.9091 4.67296L70.9188 4.82264ZM72.4919 3.1283L72.3417 3.12828L72.342 3.13597L72.4919 3.1283ZM71.2476 3.27169L71.2521 3.12176L70.979 3.11351L71.1187 3.34837L71.2476 3.27169ZM71.8529 2.61886H71.7029V2.62596L71.7036 2.63303L71.8529 2.61886ZM70.1192 1.93206V1.78206H69.9692V1.93206H70.1192ZM70.1192 4.32074H69.9692V4.47074H70.1192V4.32074ZM70.5564 4.32074V4.47074H70.7064V4.32074H70.5564ZM70.5564 3.29056V3.14056H70.4064V3.29056H70.5564ZM70.8142 3.29056L70.9427 3.21319L70.899 3.14056H70.8142V3.29056ZM71.4344 4.32074L71.3059 4.39811L71.3496 4.47074H71.4344V4.32074ZM71.8716 4.32074V4.47074H72.1353L72.0005 4.24406L71.8716 4.32074ZM70.5564 2.95848H70.4064V3.10848H70.5564V2.95848ZM70.5564 2.26791V2.11791H70.4064V2.26791H70.5564ZM61.9104 23.117L61.7933 23.2107L61.8819 23.3215L61.9975 23.2391L61.9104 23.117ZM65.6655 1H65.8154V0.85H65.6655V1ZM57.4454 1V0.85H57.2954V1H57.4454ZM57.4454 14.1094L57.2954 14.1094L57.2955 14.1131L57.4454 14.1094ZM56.9335 16.8981L56.7947 16.8414L56.7614 16.923L56.8164 16.9918L56.9335 16.8981ZM43.9721 9.65283L44.0891 9.55902L43.8221 9.22579V9.65283H43.9721ZM56.2349 24.9547L56.2504 25.1039L56.5238 25.0753L56.3519 24.8609L56.2349 24.9547ZM52.2818 11.4151L52.1646 11.5087L52.4318 11.8432V11.4151H52.2818ZM52.2818 1.00755H52.4318V0.857555H52.2818V1.00755ZM43.9683 1.00755V0.857555H43.6565L43.8511 1.10117L43.9683 1.00755ZM23.0446 1.01886V0.868863H22.8946V1.01886H23.0446ZM23.0446 24.5887H22.8946V24.7387H23.0446V24.5887ZM40.7438 24.5887V24.7387H40.8938V24.5887H40.7438ZM40.7438 19.0792H40.8938V18.9292H40.7438V19.0792ZM29.3031 19.0792H29.153V19.2292H29.3031V19.0792ZM29.3031 1.01886H29.4531V0.868863H29.3031V1.01886ZM18.5311 15.1887V15.3387H18.6811V15.1887H18.5311ZM18.5311 10.2604H18.6811V10.1104H18.5311V10.2604ZM7.19118 10.2604H7.04118V10.4104H7.19118V10.2604ZM7.19118 6.35471V6.20471H7.04118V6.35471H7.19118ZM19.7155 6.35471V6.50471H19.8655V6.35471H19.7155ZM19.7155 1.01886H19.8655V0.868863H19.7155V1.01886ZM1 1.01886V0.868863H0.85V1.01886H1ZM1 24.5887H0.85V24.7387H1V24.5887ZM19.8762 24.5887V24.7387H20.0262V24.5887H19.8762ZM19.8762 19.2566H20.0262V19.1066H19.8762V19.2566ZM7.19118 19.2566H7.04118V19.4066H7.19118V19.2566ZM7.19118 15.1887V15.0387H7.04118V15.1887H7.19118ZM70.9188 0.876418C70.4772 0.876418 70.0457 1.00868 69.6787 1.25631L69.8465 1.50499C70.1641 1.2907 70.5372 1.17642 70.9188 1.17642V0.876418ZM69.6787 1.25631C69.3118 1.50393 69.026 1.85572 68.8573 2.26703L69.1349 2.38087C69.2812 2.02404 69.529 1.71929 69.8465 1.50499L69.6787 1.25631ZM68.8573 2.26703C68.6886 2.67832 68.6445 3.13082 68.7305 3.56735L69.0248 3.50938C68.9502 3.13046 68.9885 2.73771 69.1349 2.38087L68.8573 2.26703ZM68.7305 3.56735C68.8165 4.00389 69.0287 4.40508 69.3406 4.7201L69.5538 4.50902C69.2836 4.23614 69.0995 3.88829 69.0248 3.50938L68.7305 3.56735ZM69.3406 4.7201C69.6526 5.03514 70.0502 5.24986 70.4833 5.33687L70.5424 5.04274C70.168 4.96754 69.824 4.78189 69.5538 4.50902L69.3406 4.7201ZM70.4833 5.33687C70.9164 5.42387 71.3653 5.3792 71.7732 5.20857L71.6574 4.93181C71.3047 5.07936 70.9167 5.11794 70.5424 5.04274L70.4833 5.33687ZM71.7732 5.20857C72.181 5.03795 72.5294 4.74911 72.7744 4.37881L72.5242 4.21328C72.3118 4.5343 72.0101 4.78426 71.6574 4.93181L71.7732 5.20857ZM72.7744 4.37881C73.0193 4.00853 73.15 3.57336 73.15 3.1283H72.85C72.85 3.51468 72.7365 3.89226 72.5242 4.21328L72.7744 4.37881ZM73.15 3.12777C73.1479 2.53181 72.9126 1.96057 72.4949 1.5387L72.2817 1.74978C72.6437 2.11542 72.8482 2.61111 72.85 3.12883L73.15 3.12777ZM72.4949 1.5387C72.0771 1.11679 71.5108 0.878552 70.9194 0.876419L70.9183 1.17642C71.4296 1.17826 71.9197 1.38419 72.2817 1.74978L72.4949 1.5387ZM70.9091 4.67296C70.603 4.69293 70.2979 4.61949 70.0334 4.46205L69.8799 4.71982C70.1964 4.90822 70.5618 4.99625 70.9286 4.97233L70.9091 4.67296ZM70.0334 4.46205C69.7689 4.30459 69.5572 4.0703 69.4259 3.78942L69.1541 3.91645C69.3107 4.25146 69.5635 4.53143 69.8799 4.71982L70.0334 4.46205ZM69.4259 3.78942C69.2946 3.50853 69.2499 3.19415 69.2978 2.88716L69.0013 2.84097C68.9443 3.20676 68.9975 3.58145 69.1541 3.91645L69.4259 3.78942ZM69.2978 2.88716C69.3456 2.58018 69.4837 2.29501 69.6939 2.06862L69.474 1.8645C69.2229 2.13493 69.0583 2.47517 69.0013 2.84097L69.2978 2.88716ZM69.6939 2.06862C69.904 1.84224 70.1766 1.6851 70.4759 1.61734L70.4097 1.32474C70.0511 1.40591 69.7251 1.59405 69.474 1.8645L69.6939 2.06862ZM70.4759 1.61734C70.7753 1.54959 71.0879 1.57429 71.3733 1.6883L71.4846 1.40971C71.1429 1.27319 70.7684 1.24357 70.4097 1.32474L70.4759 1.61734ZM71.3733 1.6883C71.6587 1.80231 71.9038 2.00045 72.0766 2.25722L72.3255 2.08971C72.1192 1.78322 71.8263 1.54622 71.4846 1.40971L71.3733 1.6883ZM72.0766 2.25722C72.2494 2.514 72.3419 2.8175 72.3419 3.12828L72.6418 3.12833C72.6419 2.75805 72.5317 2.39619 72.3255 2.08971L72.0766 2.25722ZM72.342 3.13597C72.3521 3.3326 72.3228 3.52924 72.2558 3.71408L72.5378 3.81628C72.6184 3.59378 72.6538 3.35718 72.6417 3.12064L72.342 3.13597ZM72.2558 3.71408C72.1888 3.89893 72.0856 4.06811 71.9525 4.21153L72.1723 4.41565C72.3329 4.24265 72.4572 4.03878 72.5378 3.81628L72.2558 3.71408ZM71.9525 4.21153C71.8193 4.35495 71.6589 4.46967 71.481 4.54887L71.603 4.82294C71.8181 4.7272 72.0117 4.58865 72.1723 4.41565L71.9525 4.21153ZM71.481 4.54887C71.3031 4.62807 71.1112 4.67016 70.9169 4.67266L70.9208 4.97263C71.1559 4.96961 71.3879 4.91868 71.603 4.82294L71.481 4.54887ZM71.2431 3.42162C71.3483 3.4248 71.4529 3.40532 71.5501 3.36453L71.4339 3.08794C71.3763 3.11212 71.3144 3.12364 71.2521 3.12176L71.2431 3.42162ZM71.5501 3.36453C71.6472 3.32374 71.7344 3.26259 71.8062 3.18525L71.5862 2.98127C71.5434 3.02742 71.4914 3.06375 71.4339 3.08794L71.5501 3.36453ZM71.8062 3.18525C71.8779 3.1079 71.9324 3.01613 71.9661 2.91607L71.6819 2.82013C71.6616 2.88021 71.629 2.93512 71.5862 2.98127L71.8062 3.18525ZM71.9661 2.91607C71.9999 2.81601 72.0122 2.70987 72.0022 2.60469L71.7036 2.63303C71.7096 2.69626 71.7022 2.76005 71.6819 2.82013L71.9661 2.91607ZM72.0029 2.61886C72.0029 2.34288 71.9164 2.12077 71.7252 1.97395C71.5423 1.83347 71.2886 1.78206 70.9973 1.78206V2.08206C71.2626 2.08206 71.4367 2.13066 71.5425 2.21187C71.64 2.28676 71.7029 2.40805 71.7029 2.61886H72.0029ZM70.9973 1.78206H70.1192V2.08206H70.9973V1.78206ZM69.9692 1.93206V4.32074H70.2692V1.93206H69.9692ZM70.1192 4.47074H70.5564V4.17074H70.1192V4.47074ZM70.7064 4.32074V3.29056H70.4064V4.32074H70.7064ZM70.5564 3.44056H70.8142V3.14056H70.5564V3.44056ZM70.6857 3.36793L71.3059 4.39811L71.5629 4.24338L70.9427 3.21319L70.6857 3.36793ZM71.4344 4.47074H71.8716V4.17074H71.4344V4.47074ZM72.0005 4.24406L71.3765 3.19501L71.1187 3.34837L71.7427 4.39742L72.0005 4.24406ZM70.7064 2.95848V2.26791H70.4064V2.95848H70.7064ZM70.5564 2.41791H70.9487V2.11791H70.5564V2.41791ZM70.9487 2.41791C71.0552 2.41791 71.1444 2.429 71.203 2.4575C71.2294 2.47037 71.2447 2.48454 71.2542 2.4991C71.2633 2.51322 71.2732 2.5374 71.2732 2.58112H71.5732C71.5732 2.489 71.5514 2.4061 71.506 2.33602C71.4609 2.26638 71.3989 2.21924 71.3343 2.18776C71.2107 2.12758 71.0626 2.11791 70.9487 2.11791V2.41791ZM71.2732 2.58112C71.2732 2.71365 71.2331 2.74989 71.2027 2.76767C71.1529 2.79681 71.0698 2.80848 70.9375 2.80848V3.10848C71.0667 3.10848 71.2265 3.10128 71.3541 3.02665C71.5012 2.94066 71.5732 2.78822 71.5732 2.58112H71.2732ZM70.9375 2.80848H70.5564V3.10848H70.9375V2.80848ZM61.9975 23.2391C64.5268 21.436 65.8154 18.4004 65.8154 14.2453H65.5154C65.5154 18.3392 64.2485 21.2659 61.8233 22.9948L61.9975 23.2391ZM65.8154 14.2453V1H65.5154V14.2453H65.8154ZM65.6655 0.85H57.4454V1.15H65.6655V0.85ZM57.2954 1V14.1094H57.5954V1H57.2954ZM57.2955 14.1131C57.3181 15.0478 57.1475 15.9771 56.7947 16.8414L57.0724 16.9548C57.4409 16.0521 57.619 15.0818 57.5954 14.1058L57.2955 14.1131ZM56.8164 16.9918L61.7933 23.2107L62.0275 23.0233L57.0507 16.8044L56.8164 16.9918ZM43.8221 9.65283V14.0868H44.1221V9.65283H43.8221ZM43.8221 14.0868C43.8221 17.6817 44.7696 20.4539 46.6412 22.3268C48.5127 24.1997 51.2851 25.15 54.886 25.15V24.85C51.3355 24.85 48.6509 23.9135 46.8534 22.1147C45.0558 20.3159 44.1221 17.6315 44.1221 14.0868H43.8221ZM54.886 25.15C55.3478 25.15 55.8079 25.1501 56.2504 25.1039L56.2193 24.8055C55.795 24.8499 55.3509 24.85 54.886 24.85V25.15ZM56.3519 24.8609L44.0891 9.55902L43.855 9.74663L56.1178 25.0485L56.3519 24.8609ZM52.4318 11.4151V1.00755H52.1318V11.4151H52.4318ZM52.2818 0.857555H43.9683V1.15755H52.2818V0.857555ZM43.8511 1.10117L52.1646 11.5087L52.399 11.3215L44.0855 0.913937L43.8511 1.10117ZM22.8946 1.01886V24.5887H23.1946V1.01886H22.8946ZM23.0446 24.7387H40.7438V24.4387H23.0446V24.7387ZM40.8938 24.5887V19.0792H40.5938V24.5887H40.8938ZM40.7438 18.9292H29.3031V19.2292H40.7438V18.9292ZM29.4531 19.0792V1.01886H29.153V19.0792H29.4531ZM29.3031 0.868863H23.0446V1.16886H29.3031V0.868863ZM18.6811 15.1887V10.2604H18.3811V15.1887H18.6811ZM18.5311 10.1104H7.19118V10.4104H18.5311V10.1104ZM7.34118 10.2604V6.35471H7.04118V10.2604H7.34118ZM7.19118 6.50471H19.7155V6.20471H7.19118V6.50471ZM19.8655 6.35471V1.01886H19.5655V6.35471H19.8655ZM19.7155 0.868863H1V1.16886H19.7155V0.868863ZM0.85 1.01886V24.5887H1.15V1.01886H0.85ZM1 24.7387H19.8762V24.4387H1V24.7387ZM20.0262 24.5887V19.2566H19.7262V24.5887H20.0262ZM19.8762 19.1066H7.19118V19.4066H19.8762V19.1066ZM7.34118 19.2566V15.1887H7.04118V19.2566H7.34118ZM7.19118 15.3387H18.5311V15.0387H7.19118V15.3387Z" fill="#FFDB0A"/>
<path d="M70.9188 1.02642L70.9194 0.876418H70.9188V1.02642ZM73 3.1283L73.15 3.1283V3.12777L73 3.1283ZM70.9188 4.82264L70.9169 4.67245L70.9091 4.67296L70.9188 4.82264ZM72.4919 3.1283L72.3417 3.12828L72.342 3.13597L72.4919 3.1283ZM71.2476 3.27169L71.2521 3.12176L70.979 3.11351L71.1187 3.34837L71.2476 3.27169ZM71.8529 2.61886H71.7029V2.62596L71.7036 2.63303L71.8529 2.61886ZM70.1192 1.93206V1.78206H69.9692V1.93206H70.1192ZM70.1192 4.32074H69.9692V4.47074H70.1192V4.32074ZM70.5564 4.32074V4.47074H70.7064V4.32074H70.5564ZM70.5564 3.29056V3.14056H70.4064V3.29056H70.5564ZM70.8142 3.29056L70.9427 3.21319L70.899 3.14056H70.8142V3.29056ZM71.4344 4.32074L71.3059 4.39811L71.3496 4.47074H71.4344V4.32074ZM71.8716 4.32074V4.47074H72.1353L72.0005 4.24406L71.8716 4.32074ZM70.5564 2.95848H70.4064V3.10848H70.5564V2.95848ZM70.5564 2.26791V2.11791H70.4064V2.26791H70.5564ZM61.9104 23.117L61.7933 23.2107L61.8819 23.3215L61.9975 23.2391L61.9104 23.117ZM65.6655 1H65.8154V0.85H65.6655V1ZM57.4454 1V0.85H57.2954V1H57.4454ZM57.4454 14.1094L57.2954 14.1094L57.2955 14.1131L57.4454 14.1094ZM56.9335 16.8981L56.7947 16.8414L56.7614 16.923L56.8164 16.9918L56.9335 16.8981ZM43.9721 9.65283L44.0891 9.55902L43.8221 9.22579V9.65283H43.9721ZM56.2349 24.9547L56.2504 25.1039L56.5238 25.0753L56.3519 24.8609L56.2349 24.9547ZM52.2818 11.4151L52.1646 11.5087L52.4318 11.8432V11.4151H52.2818ZM52.2818 1.00755H52.4318V0.857555H52.2818V1.00755ZM43.9683 1.00755V0.857555H43.6565L43.8511 1.10117L43.9683 1.00755ZM23.0446 1.01886V0.868863H22.8946V1.01886H23.0446ZM23.0446 24.5887H22.8946V24.7387H23.0446V24.5887ZM40.7438 24.5887V24.7387H40.8938V24.5887H40.7438ZM40.7438 19.0792H40.8938V18.9292H40.7438V19.0792ZM29.3031 19.0792H29.153V19.2292H29.3031V19.0792ZM29.3031 1.01886H29.4531V0.868863H29.3031V1.01886ZM18.5311 15.1887V15.3387H18.6811V15.1887H18.5311ZM18.5311 10.2604H18.6811V10.1104H18.5311V10.2604ZM7.19118 10.2604H7.04118V10.4104H7.19118V10.2604ZM7.19118 6.35471V6.20471H7.04118V6.35471H7.19118ZM19.7155 6.35471V6.50471H19.8655V6.35471H19.7155ZM19.7155 1.01886H19.8655V0.868863H19.7155V1.01886ZM1 1.01886V0.868863H0.85V1.01886H1ZM1 24.5887H0.85V24.7387H1V24.5887ZM19.8762 24.5887V24.7387H20.0262V24.5887H19.8762ZM19.8762 19.2566H20.0262V19.1066H19.8762V19.2566ZM7.19118 19.2566H7.04118V19.4066H7.19118V19.2566ZM7.19118 15.1887V15.0387H7.04118V15.1887H7.19118ZM70.9188 0.876418C70.4772 0.876418 70.0457 1.00868 69.6787 1.25631L69.8465 1.50499C70.1641 1.2907 70.5372 1.17642 70.9188 1.17642V0.876418ZM69.6787 1.25631C69.3118 1.50393 69.026 1.85572 68.8573 2.26703L69.1349 2.38087C69.2812 2.02404 69.529 1.71929 69.8465 1.50499L69.6787 1.25631ZM68.8573 2.26703C68.6886 2.67832 68.6445 3.13082 68.7305 3.56735L69.0248 3.50938C68.9502 3.13046 68.9885 2.73771 69.1349 2.38087L68.8573 2.26703ZM68.7305 3.56735C68.8165 4.00389 69.0287 4.40508 69.3406 4.7201L69.5538 4.50902C69.2836 4.23614 69.0995 3.88829 69.0248 3.50938L68.7305 3.56735ZM69.3406 4.7201C69.6526 5.03514 70.0502 5.24986 70.4833 5.33687L70.5424 5.04274C70.168 4.96754 69.824 4.78189 69.5538 4.50902L69.3406 4.7201ZM70.4833 5.33687C70.9164 5.42387 71.3653 5.3792 71.7732 5.20857L71.6574 4.93181C71.3047 5.07936 70.9167 5.11794 70.5424 5.04274L70.4833 5.33687ZM71.7732 5.20857C72.181 5.03795 72.5294 4.74911 72.7744 4.37881L72.5242 4.21328C72.3118 4.5343 72.0101 4.78426 71.6574 4.93181L71.7732 5.20857ZM72.7744 4.37881C73.0193 4.00853 73.15 3.57336 73.15 3.1283H72.85C72.85 3.51468 72.7365 3.89226 72.5242 4.21328L72.7744 4.37881ZM73.15 3.12777C73.1479 2.53181 72.9126 1.96057 72.4949 1.5387L72.2817 1.74978C72.6437 2.11542 72.8482 2.61111 72.85 3.12883L73.15 3.12777ZM72.4949 1.5387C72.0771 1.11679 71.5108 0.878552 70.9194 0.876419L70.9183 1.17642C71.4296 1.17826 71.9197 1.38419 72.2817 1.74978L72.4949 1.5387ZM70.9091 4.67296C70.603 4.69293 70.2979 4.61949 70.0334 4.46205L69.8799 4.71982C70.1964 4.90822 70.5618 4.99625 70.9286 4.97233L70.9091 4.67296ZM70.0334 4.46205C69.7689 4.30459 69.5572 4.0703 69.4259 3.78942L69.1541 3.91645C69.3107 4.25146 69.5635 4.53143 69.8799 4.71982L70.0334 4.46205ZM69.4259 3.78942C69.2946 3.50853 69.2499 3.19415 69.2978 2.88716L69.0013 2.84097C68.9443 3.20676 68.9975 3.58145 69.1541 3.91645L69.4259 3.78942ZM69.2978 2.88716C69.3456 2.58018 69.4837 2.29501 69.6939 2.06862L69.474 1.8645C69.2229 2.13493 69.0583 2.47517 69.0013 2.84097L69.2978 2.88716ZM69.6939 2.06862C69.904 1.84224 70.1766 1.6851 70.4759 1.61734L70.4097 1.32474C70.0511 1.40591 69.7251 1.59405 69.474 1.8645L69.6939 2.06862ZM70.4759 1.61734C70.7753 1.54959 71.0879 1.57429 71.3733 1.6883L71.4846 1.40971C71.1429 1.27319 70.7684 1.24357 70.4097 1.32474L70.4759 1.61734ZM71.3733 1.6883C71.6587 1.80231 71.9038 2.00045 72.0766 2.25722L72.3255 2.08971C72.1192 1.78322 71.8263 1.54622 71.4846 1.40971L71.3733 1.6883ZM72.0766 2.25722C72.2494 2.514 72.3419 2.8175 72.3419 3.12828L72.6418 3.12833C72.6419 2.75805 72.5317 2.39619 72.3255 2.08971L72.0766 2.25722ZM72.342 3.13597C72.3521 3.3326 72.3228 3.52924 72.2558 3.71408L72.5378 3.81628C72.6184 3.59378 72.6538 3.35718 72.6417 3.12064L72.342 3.13597ZM72.2558 3.71408C72.1888 3.89893 72.0856 4.06811 71.9525 4.21153L72.1723 4.41565C72.3329 4.24265 72.4572 4.03878 72.5378 3.81628L72.2558 3.71408ZM71.9525 4.21153C71.8193 4.35495 71.6589 4.46967 71.481 4.54887L71.603 4.82294C71.8181 4.7272 72.0117 4.58865 72.1723 4.41565L71.9525 4.21153ZM71.481 4.54887C71.3031 4.62807 71.1112 4.67016 70.9169 4.67266L70.9208 4.97263C71.1559 4.96961 71.3879 4.91868 71.603 4.82294L71.481 4.54887ZM71.2431 3.42162C71.3483 3.4248 71.4529 3.40532 71.5501 3.36453L71.4339 3.08794C71.3763 3.11212 71.3144 3.12364 71.2521 3.12176L71.2431 3.42162ZM71.5501 3.36453C71.6472 3.32374 71.7344 3.26259 71.8062 3.18525L71.5862 2.98127C71.5434 3.02742 71.4914 3.06375 71.4339 3.08794L71.5501 3.36453ZM71.8062 3.18525C71.8779 3.1079 71.9324 3.01613 71.9661 2.91607L71.6819 2.82013C71.6616 2.88021 71.629 2.93512 71.5862 2.98127L71.8062 3.18525ZM71.9661 2.91607C71.9999 2.81601 72.0122 2.70987 72.0022 2.60469L71.7036 2.63303C71.7096 2.69626 71.7022 2.76005 71.6819 2.82013L71.9661 2.91607ZM72.0029 2.61886C72.0029 2.34288 71.9164 2.12077 71.7252 1.97395C71.5423 1.83347 71.2886 1.78206 70.9973 1.78206V2.08206C71.2626 2.08206 71.4367 2.13066 71.5425 2.21187C71.64 2.28676 71.7029 2.40805 71.7029 2.61886H72.0029ZM70.9973 1.78206H70.1192V2.08206H70.9973V1.78206ZM69.9692 1.93206V4.32074H70.2692V1.93206H69.9692ZM70.1192 4.47074H70.5564V4.17074H70.1192V4.47074ZM70.7064 4.32074V3.29056H70.4064V4.32074H70.7064ZM70.5564 3.44056H70.8142V3.14056H70.5564V3.44056ZM70.6857 3.36793L71.3059 4.39811L71.5629 4.24338L70.9427 3.21319L70.6857 3.36793ZM71.4344 4.47074H71.8716V4.17074H71.4344V4.47074ZM72.0005 4.24406L71.3765 3.19501L71.1187 3.34837L71.7427 4.39742L72.0005 4.24406ZM70.7064 2.95848V2.26791H70.4064V2.95848H70.7064ZM70.5564 2.41791H70.9487V2.11791H70.5564V2.41791ZM70.9487 2.41791C71.0552 2.41791 71.1444 2.429 71.203 2.4575C71.2294 2.47037 71.2447 2.48454 71.2542 2.4991C71.2633 2.51322 71.2732 2.5374 71.2732 2.58112H71.5732C71.5732 2.489 71.5514 2.4061 71.506 2.33602C71.4609 2.26638 71.3989 2.21924 71.3343 2.18776C71.2107 2.12758 71.0626 2.11791 70.9487 2.11791V2.41791ZM71.2732 2.58112C71.2732 2.71365 71.2331 2.74989 71.2027 2.76767C71.1529 2.79681 71.0698 2.80848 70.9375 2.80848V3.10848C71.0667 3.10848 71.2265 3.10128 71.3541 3.02665C71.5012 2.94066 71.5732 2.78822 71.5732 2.58112H71.2732ZM70.9375 2.80848H70.5564V3.10848H70.9375V2.80848ZM61.9975 23.2391C64.5268 21.436 65.8154 18.4004 65.8154 14.2453H65.5154C65.5154 18.3392 64.2485 21.2659 61.8233 22.9948L61.9975 23.2391ZM65.8154 14.2453V1H65.5154V14.2453H65.8154ZM65.6655 0.85H57.4454V1.15H65.6655V0.85ZM57.2954 1V14.1094H57.5954V1H57.2954ZM57.2955 14.1131C57.3181 15.0478 57.1475 15.9771 56.7947 16.8414L57.0724 16.9548C57.4409 16.0521 57.619 15.0818 57.5954 14.1058L57.2955 14.1131ZM56.8164 16.9918L61.7933 23.2107L62.0275 23.0233L57.0507 16.8044L56.8164 16.9918ZM43.8221 9.65283V14.0868H44.1221V9.65283H43.8221ZM43.8221 14.0868C43.8221 17.6817 44.7696 20.4539 46.6412 22.3268C48.5127 24.1997 51.2851 25.15 54.886 25.15V24.85C51.3355 24.85 48.6509 23.9135 46.8534 22.1147C45.0558 20.3159 44.1221 17.6315 44.1221 14.0868H43.8221ZM54.886 25.15C55.3478 25.15 55.8079 25.1501 56.2504 25.1039L56.2193 24.8055C55.795 24.8499 55.3509 24.85 54.886 24.85V25.15ZM56.3519 24.8609L44.0891 9.55902L43.855 9.74663L56.1178 25.0485L56.3519 24.8609ZM52.4318 11.4151V1.00755H52.1318V11.4151H52.4318ZM52.2818 0.857555H43.9683V1.15755H52.2818V0.857555ZM43.8511 1.10117L52.1646 11.5087L52.399 11.3215L44.0855 0.913937L43.8511 1.10117ZM22.8946 1.01886V24.5887H23.1946V1.01886H22.8946ZM23.0446 24.7387H40.7438V24.4387H23.0446V24.7387ZM40.8938 24.5887V19.0792H40.5938V24.5887H40.8938ZM40.7438 18.9292H29.3031V19.2292H40.7438V18.9292ZM29.4531 19.0792V1.01886H29.153V19.0792H29.4531ZM29.3031 0.868863H23.0446V1.16886H29.3031V0.868863ZM18.6811 15.1887V10.2604H18.3811V15.1887H18.6811ZM18.5311 10.1104H7.19118V10.4104H18.5311V10.1104ZM7.34118 10.2604V6.35471H7.04118V10.2604H7.34118ZM7.19118 6.50471H19.7155V6.20471H7.19118V6.50471ZM19.8655 6.35471V1.01886H19.5655V6.35471H19.8655ZM19.7155 0.868863H1V1.16886H19.7155V0.868863ZM0.85 1.01886V24.5887H1.15V1.01886H0.85ZM1 24.7387H19.8762V24.4387H1V24.7387ZM20.0262 24.5887V19.2566H19.7262V24.5887H20.0262ZM19.8762 19.1066H7.19118V19.4066H19.8762V19.1066ZM7.34118 19.2566V15.1887H7.04118V19.2566H7.34118ZM7.19118 15.3387H18.5311V15.0387H7.19118V15.3387Z" fill="black" fill-opacity="0.24"/>
</svg>
