<svg width="72" height="24" viewBox="0 0 72 24" fill="none" xmlns="http://www.w3.org/2000/svg">
<path d="M69.9188 0.0264179C69.5072 0.0264179 69.1049 0.149691 68.7626 0.380649C68.4204 0.611607 68.1536 0.939878 67.9961 1.32395C67.8386 1.70802 67.7974 2.13064 67.8777 2.53836C67.958 2.94609 68.1562 3.32061 68.4472 3.61456C68.7383 3.90852 69.1091 4.1087 69.5128 4.1898C69.9165 4.27091 70.335 4.22928 70.7153 4.07019C71.0956 3.91111 71.4206 3.6417 71.6493 3.29605C71.8779 2.9504 72 2.54402 72 2.1283C71.998 1.57146 71.7781 1.03799 71.3883 0.644243C70.9984 0.250493 70.4702 0.0284066 69.9188 0.0264179ZM69.9188 3.82264C69.5824 3.84459 69.2471 3.76386 68.9567 3.59093C68.6662 3.41801 68.4339 3.16088 68.29 2.85294C68.1461 2.54499 68.0971 2.20045 68.1496 1.86406C68.202 1.52767 68.3533 1.21497 68.5839 0.966559C68.8146 0.718147 69.1138 0.545501 69.4428 0.47104C69.7718 0.396579 70.1154 0.423744 70.4289 0.549004C70.7425 0.674264 71.0115 0.891835 71.201 1.17347C71.3906 1.4551 71.4919 1.78777 71.4919 2.1283C71.5029 2.34489 71.4706 2.56151 71.3968 2.76518C71.323 2.96885 71.2093 3.15538 71.0624 3.31359C70.9155 3.4718 70.7385 3.59843 70.542 3.68591C70.3455 3.77338 70.1336 3.81989 69.9188 3.82264Z" fill="#2F61BF"/>
<path d="M70.2476 2.27169C70.3313 2.27422 70.4146 2.25872 70.492 2.22623C70.5693 2.19375 70.6389 2.14501 70.6962 2.08326C70.7534 2.02151 70.797 1.94817 70.824 1.8681C70.851 1.78803 70.8609 1.70307 70.8529 1.61886C70.8529 1.13207 70.554 0.932065 69.9973 0.932065H69.1192V3.32074H69.5564V2.29056H69.8142L70.4344 3.32074H70.8716L70.2476 2.27169ZM69.5564 1.95848V1.26791H69.9487C70.1691 1.26791 70.4232 1.30942 70.4232 1.58112C70.4232 1.92074 70.199 1.95848 69.9375 1.95848H69.5564Z" fill="#2F61BF"/>
<path d="M60.9104 22.117C63.3876 20.3509 64.6655 17.3698 64.6655 13.2453V0H56.4454V13.1094C56.4685 14.0648 56.2942 15.0146 55.9335 15.8981L60.9104 22.117Z" fill="#2F61BF"/>
<path d="M42.9721 8.65283V13.0868C42.9721 20.2264 46.7346 24 53.886 24C54.3493 24 54.8014 24 55.2349 23.9547L42.9721 8.65283Z" fill="#2F61BF"/>
<path d="M51.2818 10.4151V0.00755454H42.9683L51.2818 10.4151Z" fill="#121212"/>
<path d="M22.0446 0.0188633V23.5887H39.7438V18.0792H28.3031V0.0188633H22.0446Z" fill="#2F61BF"/>
<path d="M17.5311 14.1887V9.26037H6.19118V5.35471H18.7155V0.0188633H0V23.5887H18.8762V18.2566H6.19118V14.1887H17.5311Z" fill="#2F61BF"/>
</svg>
