<svg width="92" height="92" viewBox="0 0 92 92" fill="none" xmlns="http://www.w3.org/2000/svg">
<g opacity="0.63" clip-path="url(#clip0_1313_26641)">
<path d="M82.7109 17.1629H11.7246C10.7669 17.1635 9.84862 17.5442 9.17143 18.2213C8.49424 18.8985 8.11354 19.8168 8.11295 20.7745V85.9052C8.11354 86.8628 8.49424 87.7811 9.17143 88.4583C9.84862 89.1355 10.7669 89.5162 11.7246 89.5168H82.7109C83.6687 89.5163 84.5871 89.1357 85.2644 88.4585C85.9416 87.7813 86.3224 86.8629 86.323 85.9052V20.7745C86.3224 19.8168 85.9416 18.8984 85.2644 18.2212C84.5871 17.544 83.6687 17.1634 82.7109 17.1629Z" fill="#5D5D5D"/>
<path d="M78.0379 66.8843H16.3985C14.4039 66.8843 12.7868 65.2672 12.7868 63.2727V5.72634C12.7868 3.7318 14.4039 2.11469 16.3985 2.11469H78.0379C80.0324 2.11469 81.6496 3.7318 81.6496 5.72634V63.2727C81.6496 65.2672 80.0324 66.8843 78.0379 66.8843Z" fill="#7C7C7C"/>
<path d="M13.9303 64.4157V6.86981C13.9303 4.87527 15.5474 3.25816 17.5419 3.25816H79.1814C79.8859 3.25816 80.5408 3.46291 81.0961 3.81162C80.4576 2.79346 79.3283 2.11469 78.0379 2.11469H16.3985C14.4039 2.11469 12.7868 3.7318 12.7868 5.72634V63.2727C12.7868 64.5634 13.4656 65.6924 14.4837 66.3312C14.135 65.7755 13.9303 65.1206 13.9303 64.4161V64.4157Z" fill="url(#paint0_linear_1313_26641)"/>
<path d="M70.4538 14.2733H23.983V16.9217H70.4538V14.2733ZM70.4538 24.3855H23.983V27.0339H70.4538V24.3855ZM70.4538 34.5H23.983V37.1483H70.4538V34.5ZM70.4538 44.6121H23.983V47.2608H70.4538V44.6121Z" fill="#C0BFBF"/>
<path d="M29.5208 36.0641L41.1982 47.7419H29.5208V36.0641Z" fill="url(#paint1_linear_1313_26641)"/>
<path d="M86.3232 48.7052V21.8367L81.6497 17.1629V48.7048H86.3232V48.7052Z" fill="#5D5D5D"/>
<path d="M91.7972 51.1355L86.762 86.7792C86.5102 88.5611 84.9853 89.8855 83.1858 89.8855H11.2503C9.45077 89.8855 7.92577 88.5611 7.67403 86.7792L0.869545 38.6159C0.562607 36.4416 2.24984 34.4989 4.44577 34.4989H26.661C28.4604 34.4989 29.9854 35.8233 30.2372 37.6049L31.1289 43.9122C31.3807 45.6942 32.9056 47.0185 34.7051 47.0185H88.2217C90.4169 47.0185 92.1045 48.9612 91.7976 51.1355H91.7972Z" fill="url(#paint2_linear_1313_26641)"/>
<path d="M73.9569 73.987H20.4798C20.1867 73.9869 19.9037 73.8799 19.6838 73.6861C19.4639 73.4923 19.3222 73.2249 19.2853 72.9341L18.6162 67.6367C18.5949 67.4673 18.6099 67.2952 18.6602 67.132C18.7106 66.9688 18.795 66.8181 18.908 66.69C19.0209 66.5619 19.1598 66.4593 19.3155 66.389C19.4711 66.3187 19.6399 66.2823 19.8107 66.2822H74.6259C74.7967 66.2823 74.9655 66.3187 75.1212 66.389C75.2768 66.4593 75.4158 66.5619 75.5287 66.69C75.6417 66.8181 75.7261 66.9688 75.7764 67.132C75.8267 67.2952 75.8418 67.4673 75.8205 67.6367L75.1514 72.9341C75.1145 73.2249 74.9728 73.4923 74.7529 73.6861C74.533 73.8799 74.25 73.9869 73.9569 73.987Z" fill="#7E7E7E"/>
</g>
<defs>
<linearGradient id="paint0_linear_1313_26641" x1="49.336" y1="36.6134" x2="3.6607" y2="-9.06228" gradientUnits="userSpaceOnUse">
<stop stop-color="#D4D4D4"/>
</linearGradient>
<linearGradient id="paint1_linear_1313_26641" x1="37.236" y1="49.6156" x2="23.121" y2="35.5009" gradientUnits="userSpaceOnUse">
<stop stop-color="#C2CECE" stop-opacity="0"/>
<stop offset="0.179" stop-color="#AFBCBC" stop-opacity="0.179"/>
<stop offset="1" stop-color="#5B6A6A"/>
</linearGradient>
<linearGradient id="paint2_linear_1313_26641" x1="46.3334" y1="34.4989" x2="46.3334" y2="89.8855" gradientUnits="userSpaceOnUse">
<stop stop-color="#C1C1C1"/>
<stop offset="0.927" stop-color="#9A9A9A"/>
</linearGradient>
<clipPath id="clip0_1313_26641">
<rect width="91" height="91" fill="white" transform="translate(0.833374 0.5)"/>
</clipPath>
</defs>
</svg>
