<svg xmlns="http://www.w3.org/2000/svg" width="44.999" height="40" viewBox="0 0 44.999 40">
  <path id="Path_1694" data-name="Path 1694" d="M44.816-19.3l-.886-.884a.628.628,0,0,0-.886,0l-1.329,1.326-4.139-4.13A4.972,4.972,0,0,0,36.3-27.8l-3.544-3.535A12.5,12.5,0,0,0,23.894-35a12.5,12.5,0,0,0-8.859,3.661L20.4-25.987a4.989,4.989,0,0,0,.578,3.891L1.677-4.12a5.261,5.261,0,0,0-.13,7.577A5.269,5.269,0,0,0,5.28,5,5.27,5.27,0,0,0,9.141,3.327L27.355-16.137a5.041,5.041,0,0,0,3.134.219l4.139,4.13L33.3-10.463a.716.716,0,0,0-.183.442.716.716,0,0,0,.183.442l.886.884a.628.628,0,0,0,.886,0l9.745-9.723A.718.718,0,0,0,45-18.861.718.718,0,0,0,44.816-19.3ZM7.31,1.62a2.752,2.752,0,0,1-2.03.88,2.761,2.761,0,0,1-1.962-.811A2.743,2.743,0,0,1,2.506-.316a2.743,2.743,0,0,1,.881-1.977L22.635-20.22l2.644,2.638ZM36.4-13.558l-4.139-4.129L31.242-18.7l-1.393.367a2.48,2.48,0,0,1-2.412-.628l-3.987-3.977a2.468,2.468,0,0,1-.63-2.406l.368-1.39L22.17-27.754,18.8-31.117A9.983,9.983,0,0,1,23.894-32.5a9.972,9.972,0,0,1,7.087,2.929l3.544,3.536a2.468,2.468,0,0,1,.63,2.406l-.368,1.39,1.019,1.016,4.139,4.13Z" transform="translate(0 35)" fill="#243240" opacity="0.619"/>
</svg>
