<svg width="226" height="189" viewBox="0 0 226 189" fill="none" xmlns="http://www.w3.org/2000/svg">
<ellipse cx="131.833" cy="94.6667" rx="94.1667" ry="94" fill="white" fill-opacity="0.12"/>
<g clip-path="url(#clip0_213_97466)">
<path fill-rule="evenodd" clip-rule="evenodd" d="M139.007 26.85L12.2911 75.448C8.92676 76.7382 6.51212 79.0269 5.04716 82.314C3.58221 85.6011 3.49601 88.9238 4.78858 92.2822L34.7483 170.124C36.0408 173.482 38.3336 175.893 41.6265 177.355C44.9194 178.818 48.248 178.904 51.6123 177.613L178.329 129.015C181.693 127.725 184.108 125.436 185.573 122.149C187.038 118.862 187.124 115.54 185.831 112.181L155.872 34.3393C154.579 30.9809 152.286 28.5705 148.993 27.1082C145.7 25.6458 142.372 25.5598 139.007 26.85V26.85Z" fill="#212121"/>
<path d="M12.4707 75.9146L139.187 27.3167C142.428 26.0738 145.619 26.1563 148.79 27.5649C151.962 28.9734 154.16 31.2839 155.405 34.5183L185.364 112.36C186.609 115.595 186.527 118.78 185.116 121.946C183.705 125.112 181.39 127.306 178.149 128.549L51.4327 177.147C48.192 178.39 45.001 178.307 41.8293 176.898C38.6577 175.49 36.46 173.179 35.2151 169.945L5.25542 92.1031C4.01057 88.8687 4.09313 85.6837 5.50413 82.5177C6.91514 79.3516 9.22997 77.1575 12.4707 75.9146Z" stroke="white" stroke-opacity="0.3"/>
<path fill-rule="evenodd" clip-rule="evenodd" d="M87.8077 119.067L83.7447 120.625C82.8477 120.969 82.204 121.579 81.8134 122.456C81.4228 123.332 81.3998 124.218 81.7444 125.113L89.2348 144.575C89.5794 145.47 90.1907 146.113 91.0687 146.503C91.9466 146.893 92.8341 146.916 93.7311 146.572L97.7941 145.013C98.6911 144.669 99.3349 144.059 99.7254 143.183C100.116 142.306 100.139 141.421 99.7944 140.525L92.304 121.063C91.9594 120.168 91.3481 119.525 90.4701 119.136C89.5922 118.746 88.7047 118.723 87.8077 119.067V119.067ZM84.1813 124.179C83.9734 123.639 84.14 123.265 84.681 123.057L88.744 121.499C89.2849 121.292 89.6593 121.458 89.8672 121.998L97.3576 141.46C97.5654 142 97.3988 142.374 96.8579 142.581L92.7949 144.139C92.2539 144.347 91.8795 144.18 91.6716 143.64L84.1813 124.179V124.179Z" fill="white" fill-opacity="0.3"/>
<path fill-rule="evenodd" clip-rule="evenodd" d="M102.125 88.4516L98.0624 90.0098C97.1654 90.3538 96.5216 90.964 96.131 91.8404C95.7404 92.7168 95.7174 93.6027 96.0621 94.4981L111.978 135.852C112.323 136.748 112.934 137.39 113.812 137.78C114.69 138.17 115.578 138.193 116.475 137.849L120.538 136.291C121.435 135.947 122.078 135.337 122.469 134.46C122.86 133.584 122.883 132.698 122.538 131.803L106.622 90.4483C106.277 89.5529 105.666 88.9103 104.788 88.5204C103.91 88.1305 103.022 88.1075 102.125 88.4516V88.4516ZM98.4989 93.5635C98.2911 93.0235 98.4576 92.6498 98.9986 92.4423L103.062 90.8841C103.603 90.6766 103.977 90.8429 104.185 91.3829L120.101 132.737C120.309 133.277 120.142 133.651 119.601 133.858L115.538 135.417C114.998 135.624 114.623 135.458 114.415 134.918L98.4989 93.5635V93.5635Z" fill="white" fill-opacity="0.3"/>
<path fill-rule="evenodd" clip-rule="evenodd" d="M124.993 82.473L120.93 84.0312C120.033 84.3752 119.389 84.9854 118.999 85.8618C118.608 86.7382 118.585 87.6241 118.93 88.5195L133.91 127.441C134.255 128.337 134.866 128.979 135.744 129.369C136.622 129.759 137.509 129.782 138.406 129.438L142.469 127.88C143.366 127.536 144.01 126.926 144.401 126.049C144.791 125.173 144.814 124.287 144.469 123.392L129.489 84.4698C129.145 83.5744 128.533 82.9317 127.655 82.5418C126.777 82.1519 125.89 82.129 124.993 82.473V82.473ZM121.367 87.585C121.159 87.0449 121.325 86.6712 121.866 86.4637L125.929 84.9055C126.47 84.698 126.845 84.8643 127.052 85.4043L142.033 124.326C142.24 124.866 142.074 125.24 141.533 125.447L137.47 127.006C136.929 127.213 136.555 127.047 136.347 126.507L121.367 87.585V87.585Z" fill="white" fill-opacity="0.3"/>
<path fill-rule="evenodd" clip-rule="evenodd" d="M140.871 55.912L136.808 57.4702C135.911 57.8143 135.267 58.4245 134.877 59.3008C134.486 60.1773 134.463 61.0632 134.808 61.9585L156.654 118.719C156.998 119.614 157.609 120.257 158.487 120.647C159.365 121.037 160.253 121.059 161.15 120.715L165.213 119.157C166.11 118.813 166.754 118.203 167.144 117.327C167.535 116.45 167.558 115.564 167.213 114.669L145.367 57.9088C145.023 57.0134 144.411 56.3707 143.533 55.9808C142.656 55.5909 141.768 55.568 140.871 55.912V55.912ZM137.245 61.024C137.037 60.484 137.203 60.1102 137.744 59.9027L141.807 58.3445C142.348 58.137 142.723 58.3033 142.931 58.8433L164.776 115.603C164.984 116.144 164.818 116.517 164.277 116.725L160.214 118.283C159.673 118.49 159.298 118.324 159.09 117.784L137.245 61.024V61.024Z" fill="white" fill-opacity="0.3"/>
<path fill-rule="evenodd" clip-rule="evenodd" d="M53.1679 111.415C48.5697 113.178 44.0203 113.061 39.5197 111.062C35.0191 109.063 31.8854 105.769 30.1188 101.179C28.3522 96.5889 28.47 92.0475 30.4722 87.5549C32.4745 83.0622 35.7747 79.9342 40.3729 78.1707C44.9711 76.4072 49.5206 76.5248 54.0212 78.5235C58.5218 80.5221 61.6554 83.8165 63.422 88.4066C65.1887 92.9967 65.0709 97.5381 63.0686 102.031C61.0664 106.523 57.7662 109.651 53.1679 111.415V111.415ZM52.2317 108.982C56.157 107.477 58.9743 104.807 60.6835 100.972C62.3927 97.1363 62.4933 93.2595 60.9852 89.3412C59.4771 85.4228 56.8021 82.6105 52.9601 80.9043C49.1181 79.1981 45.2345 79.0977 41.3091 80.6032C37.3838 82.1086 34.5666 84.7789 32.8573 88.6141C31.1481 92.4493 31.0475 96.3261 32.5556 100.244C34.0637 104.163 36.7388 106.975 40.5808 108.681C44.4228 110.387 48.3064 110.488 52.2317 108.982V108.982Z" fill="white" fill-opacity="0.3"/>
<path fill-rule="evenodd" clip-rule="evenodd" d="M76.6919 112.092L91.1887 80.9057C92.6309 77.8033 95.0646 76.2114 98.4899 76.1301L108.807 75.8851L115.846 75.7179C118.111 75.6641 119.751 74.6263 120.767 72.6043L134.381 45.4963L136.835 40.6096C136.996 40.288 137.248 40.0704 137.59 39.957C137.932 39.8436 138.265 39.8675 138.587 40.0288C138.741 40.1062 138.875 40.2102 138.989 40.3409C139.102 40.4715 139.186 40.6189 139.24 40.7828C139.295 40.9468 139.316 41.1149 139.304 41.2873C139.291 41.4596 139.246 41.623 139.169 41.7774L123.1 73.7722C121.616 76.7275 119.219 78.2444 115.908 78.323L106.569 78.5448L98.552 78.7352C96.2085 78.7909 94.5434 79.88 93.5567 82.0026L81.0904 108.82L79.0599 113.188C78.9081 113.515 78.663 113.74 78.3246 113.864C77.9861 113.987 77.6534 113.973 77.3265 113.822C76.9995 113.67 76.7741 113.426 76.6502 113.088C76.5263 112.75 76.5402 112.418 76.6919 112.092V112.092Z" fill="white" fill-opacity="0.3"/>
</g>
<defs>
<clipPath id="clip0_213_97466">
<rect width="161.813" height="110.34" rx="8" transform="matrix(0.933689 -0.358086 0.359193 0.933263 0 79.8403)" fill="white"/>
</clipPath>
</defs>
</svg>
