<svg xmlns="http://www.w3.org/2000/svg" width="154.062" height="44.385" viewBox="0 0 154.062 44.385">
  <g id="Group_1" data-name="Group 1" transform="translate(427.984 -287.534)">
    <text id="Industrial_Services" data-name="Industrial Services" transform="translate(-427.984 326.919)" fill="#fff" font-size="16" font-family="OpenSans, Open Sans" letter-spacing="-0.004em"><tspan x="0" y="0">Industrial Services</tspan></text>
    <path id="Path_1" data-name="Path 1" d="M-427.285,303.368a15.565,15.565,0,0,0,6.745,1.512c1.94,0,4.174-.349,4.174-1.937,0-3.7-11.567-1.585-11.567-9.134,0-4.993,5.092-6.275,9.7-6.275a25.1,25.1,0,0,1,7.009.957l-.571,4.452a16.956,16.956,0,0,0-5.956-1.21c-1.546,0-3.933.092-3.933,1.905,0,3.272,11.627,1.579,11.627,8.832,0,5.38-5.387,6.608-10.479,6.608a28.486,28.486,0,0,1-7.444-1.005Zm38.089-15.434H-408.46v4.215h6.578v16.532h6.109V292.149h6.577Zm108.242,0-4.436,8.321-4.5-8.321h-7.031l8.475,12.928v7.819h6.112v-7.819l8.412-12.928Zm-81.9,0v20.747h5.882V297.5L-347,308.681h5v-3.123l-15.827-17.624ZM-342,298.442V287.934h-9.361Zm31.831,1.845h9.636v-4.138h-9.636v-4.136h10.59v-4.079h-16.858v20.747h17.217v-4.138h-10.949Zm-19.987-12.353h-6.266v20.747h16.292v-4.274h-10.026Zm-44,16.6h-8.582l-1.556,4.145h-5.964l8.408-20.747h7.1l8.53,20.747h-6.432Zm-1.348-3.923-2.862-8.329-2.972,8.329Z" transform="translate(0)" fill="#ffd20a"/>
  </g>
</svg>
