<svg xmlns="http://www.w3.org/2000/svg" width="40" height="40" viewBox="0 0 40 40">
  <path id="Path_1693" data-name="Path 1693" d="M35.312-1.25A1.567,1.567,0,0,0,33.75-2.812,1.567,1.567,0,0,0,32.187-1.25,1.567,1.567,0,0,0,33.75.312,1.567,1.567,0,0,0,35.312-1.25ZM28.75-2.812A1.567,1.567,0,0,0,27.187-1.25,1.567,1.567,0,0,0,28.75.312,1.567,1.567,0,0,0,30.312-1.25,1.567,1.567,0,0,0,28.75-2.812ZM40-6.562A3.438,3.438,0,0,0,36.562-10H26.875v-7.758h4.117A3.127,3.127,0,0,0,33.2-23.094L22.211-34.086a3.131,3.131,0,0,0-4.422,0L6.8-23.094a3.128,3.128,0,0,0,2.211,5.336h4.117V-10H3.437A3.438,3.438,0,0,0,0-6.562V1.562A3.438,3.438,0,0,0,3.437,5H36.562A3.438,3.438,0,0,0,40,1.562Zm-24.375-13.7H9.016a.628.628,0,0,1-.445-1.07L19.562-32.32a.627.627,0,0,1,.883,0L31.437-21.328a.629.629,0,0,1-.445,1.07H24.375V-5.625A.627.627,0,0,1,23.75-5h-7.5a.627.627,0,0,1-.625-.625ZM37.5-6.562V1.562a.94.94,0,0,1-.937.937H3.437A.94.94,0,0,1,2.5,1.562V-6.562A.94.94,0,0,1,3.437-7.5h9.687v1.875A3.124,3.124,0,0,0,16.25-2.5h7.5a3.124,3.124,0,0,0,3.125-3.125V-7.5h9.687A.94.94,0,0,1,37.5-6.562Z" transform="translate(0 35)" fill="#243240" opacity="0.619"/>
</svg>
