<svg width="200" height="40" viewBox="0 0 200 40" fill="none" xmlns="http://www.w3.org/2000/svg">
<g clip-path="url(#clip0_9285_136169)">
<g clip-path="url(#clip1_9285_136169)">
<path d="M72.4 16.6C72.4 13.2 70.1 9.89999 65.1 9.89999H52.2V30.1H56.5V13.5H64.4C66.8 13.5 68 14.7 68 16.6C68 18.5 66.8 19.7 64.4 19.7H61C59.5 19.7 58.6 20.6 58.6 22.1V23.4H61C62.1 23.4 63 23.8 63.7 24.7L68 30.2H73.3L67.3 22.6C70.6 21.8 72.4 19.7 72.4 16.6Z" fill="black"/>
<path d="M88 9.79999H83.7V30H88V9.79999Z" fill="black"/>
<path d="M121.4 9.79999H116.8L109.5 25.5L102.2 9.79999H97.6L107.3 30H111.9L121.4 9.79999Z" fill="black"/>
<path d="M135.3 9.79999H131V30H135.3V9.79999Z" fill="black"/>
<path d="M159.3 9.79999H154.7L144.8 30H149.4L150.6 27.4C151.1 26.3 151.9 25.8 153.1 25.8H160.6L159.7 23.9C159.2 22.7 158.3 22.2 156.9 22.2H153.1L156.9 14.2L164.5 30H169.1L159.3 9.79999Z" fill="black"/>
<path d="M200 9.79999H195.8V24.8L183.7 9.79999H178.7V30H182.9V15L195 30H200V9.79999Z" fill="black"/>
<path d="M41.1 18.4C38.7 16 26.2 3 23.8 1.1C23 0.5 21.9 0 20.6 0C19.3 0 18.2 0.5 17.4 1.1C15 3 2.4 16 0.0999992 18.4C-0.100001 18.6 0.0999992 19 0.399999 19C1.6 19 4.3 19 5.9 19C6.5 19 6.6 18.9 7 18.5C7.4 18.1 9.2 16.2 9.2 16.2C11.5 13.7 17 8.3 19.1 6.6C19.7 6 20.6 6 20.6 6C20.6 6 21.5 6 22.2 6.6C24.2 8.3 29.8 13.7 32.1 16.2C32.1 16.2 33.9 18.1 34.3 18.5C34.7 18.9 34.8 19 35.4 19C37 19 39.7 19 40.9 19C41.1 19 41.3 18.6 41.1 18.4Z" fill="black"/>
<path d="M0.100001 21.5C2.4 23.9 15 36.9 17.4 38.8C18.2 39.5 19.3 39.9 20.6 39.9C21.9 39.9 23 39.4 23.8 38.8C26.2 36.9 38.8 23.9 41.1 21.5C41.3 21.3 41.1 20.9 40.8 20.9C39.6 20.9 36.9 20.9 35.3 20.9C34.7 20.9 34.6 21 34.2 21.4C33.8 21.8 32.1 23.7 32.1 23.7C29.8 26.2 24.3 31.6 22.2 33.3C21.4 33.9 20.6 33.9 20.6 33.9C20.6 33.9 19.7 33.9 19 33.3C17 31.6 11.4 26.2 9.1 23.7C9.1 23.7 7.3 21.8 6.9 21.4C6.5 21 6.4 20.9 5.8 20.9C4.2 20.9 1.5 20.9 0.300001 20.9C0.100001 20.9 -0.0999988 21.3 0.100001 21.5Z" fill="black"/>
<path d="M19.1 24.3C18.1 23.4 16.2 21.6 15.6 20.8C15.3 20.4 15.3 20 15.3 20C15.3 20 15.3 19.6 15.6 19.2C16.3 18.4 18.1 16.6 19.1 15.7C19.5 15.3 19.6 15.1 19.6 14.6C19.6 13.1 19.6 10.3 19.6 9.19999C19.6 8.99999 19.3 8.79999 19.2 8.99999C16.9 11.1 11.7 16.3 10 18.2C9.2 19.1 9.2 20 9.2 20C9.2 20 9.1 20.9 10 21.8C11.7 23.8 16.9 28.9 19.2 31C19.4 31.2 19.6 31.1 19.6 30.8C19.6 29.7 19.6 26.9 19.6 25.4C19.6 24.9 19.5 24.6 19.1 24.3Z" fill="black"/>
<path d="M22.1 24.3C23.1 23.4 25 21.6 25.6 20.8C25.9 20.4 25.9 20 25.9 20C25.9 20 25.9 19.6 25.6 19.2C24.9 18.4 23.1 16.6 22.1 15.7C21.7 15.3 21.6 15.1 21.6 14.6C21.6 13.1 21.6 10.3 21.6 9.19999C21.6 8.89999 21.8 8.79999 22 8.99999C24.3 11.1 29.5 16.3 31.2 18.2C32 19.1 32 20 32 20C32 20 32.1 20.9 31.2 21.8C29.5 23.8 24.3 28.9 22 31C21.8 31.2 21.6 31.1 21.6 30.8C21.6 29.7 21.6 26.9 21.6 25.4C21.6 24.9 21.7 24.7 22.1 24.3Z" fill="black"/>
</g>
</g>
<defs>
<clipPath id="clip0_9285_136169">
<rect width="200" height="40" fill="white"/>
</clipPath>
<clipPath id="clip1_9285_136169">
<rect width="200" height="39.9" fill="white"/>
</clipPath>
</defs>
</svg>
